<?xml version="1.0" encoding="UTF-8" standalone="no"?>
<!-- Created with Inkscape (http://www.inkscape.org/) -->

<svg
   version="1.1"
   id="svg1"
   width="627.88367"
   height="458.55542"
   viewBox="0 0 627.88367 458.55542"
   xmlns="http://www.w3.org/2000/svg"
   xmlns:svg="http://www.w3.org/2000/svg">
  <defs
     id="defs1" />
  <g
     id="g1"
     transform="translate(-129.344,-344.312)">
    <path
       style="fill:#f9f9f9"
       d="M 423.6339,734.33971 423.844,665.812 277.2597,666.15875 130.67541,666.5055 130.0097,561.24315 C 129.64357,503.34885 129.344,430.85532 129.344,400.1464 V 344.312 h 161 161 v 20.33592 c 0,11.18476 0.29907,40.03483 0.66459,64.11128 l 0.6646,43.77535 151.71312,-0.64842 151.71312,-0.64841 0.68749,104.28714 c 0.37811,57.35793 0.54564,131.8598 0.37228,165.55972 l -0.3152,61.27259 -166.7101,0.25512 -166.7101,0.25513 z m 81.35221,33.38111 c 9.5873,-6.05158 30.04528,-16.61513 42.85789,-22.12982 4.4,-1.89381 23.45477,-9.04803 42.34393,-15.89828 37.24893,-13.50851 49.79927,-19.17446 56.8767,-25.67742 5.37327,-4.93713 7.27937,-8.9227 7.27937,-15.22084 0,-13.91447 -12.57515,-20.8543 -61.5,-33.93989 -42.67092,-11.41289 -58.71057,-17.46513 -71.01264,-26.79518 -24.13861,-18.30704 -25.88438,-50.24268 -3.94556,-72.17677 13.29798,-13.29511 34.67569,-25.06586 80.9582,-44.57626 5.5,-2.31853 12.475,-5.4941 15.5,-7.05683 l 5.5,-2.84133 -83.75,-0.0481 -83.75,-0.0481 v 77.33525 c 0,42.53439 0.29873,103.73439 0.66386,136 l 0.66385,58.66475 h 21.22826 21.22825 z m 223.09167,-80.56178 c 0.12858,-46.94087 -0.0964,-108.07204 -0.5,-135.84704 l -0.73378,-50.5 -20.36526,-0.27107 c -23.03623,-0.30663 -19.1442,-1.32589 -37.13474,9.72499 -11.67654,7.17244 -30.77744,16.62948 -47.5,23.51771 -68.27251,28.1223 -85.29898,38.11229 -89.63759,52.59327 -1.61194,5.38017 -0.31785,10.42522 3.86045,15.0501 7.27705,8.05482 14.59605,10.99459 54.77714,22.00191 44.29795,12.13511 55.28564,16.19213 69.21512,25.55654 24.42063,16.41732 30.88581,41.27212 16.73249,64.32655 -10.72251,17.46595 -27.52208,27.02891 -79.94761,45.50927 -18.97004,6.68706 -36.70379,13.36119 -37.42911,14.08651 -0.30713,0.30712 37.46378,0.34238 83.93535,0.0784 l 84.49376,-0.4801 z m -304.96661,-76.06983 -0.26717,-25.22279 -4,-0.68965 c -10.90365,-1.87995 -23.33885,-8.84688 -32.36317,-18.13177 -11.44535,-11.77581 -20.33926,-27.16788 -33.64844,-58.233 -19.80568,-46.22867 -30.67494,-64.71186 -42.04641,-71.5 -5.21532,-3.11326 -6.64103,-3.5 -12.90259,-3.5 -8.88431,0 -14.25585,2.48605 -21.66607,10.02747 -8.58257,8.73453 -14.05688,17.95861 -30.54796,51.47253 -8.52505,17.325 -17.78741,35.55 -20.58303,40.5 -5.97968,10.58778 -15.4796,23.13543 -22.41919,29.61163 -11.3314,10.57475 -27.2634,20.15048 -38.18206,22.94885 l -5.14108,1.31762 v 23.31095 23.31095 h 132.01717 132.01717 z m -253.0884,-56.88624 c 7.4414,-4.24784 18.71033,-15.85097 25.57835,-26.33692 3.26159,-4.97973 12.95773,-23.22905 21.54699,-40.55405 21.05285,-42.46477 28.32912,-54.22333 40.8808,-66.06395 12.47883,-11.7719 25.00256,-17.19506 39.81509,-17.24119 15.34244,-0.0478 27.56713,5.67032 40.65707,19.01733 10.72137,10.93194 20.21354,27.64296 35.26993,62.09295 16.80364,38.44779 27.48906,57.84251 35.04197,63.60339 4.18977,3.1957 9.61257,5.59147 12.65622,5.59147 h 2.18942 l -0.57698,-90.08634 c -0.31734,-49.54749 -0.81438,-90.32374 -1.10454,-90.6139 -0.29016,-0.29016 -59.8388,-0.19267 -132.33032,0.21664 l -131.80277,0.7442 0.61718,56.1197 c 0.33945,30.86584 0.67695,72.25598 0.75,91.97811 l 0.13282,35.85841 2.75,-0.68481 c 1.5125,-0.37664 5.08044,-2.01511 7.92877,-3.64104 z"
       id="path1" />
  </g>
</svg>
