<?xml version="1.0" encoding="UTF-8" standalone="no"?>
<svg
   xmlns:dc="http://purl.org/dc/elements/1.1/"
   xmlns:cc="http://creativecommons.org/ns#"
   xmlns:rdf="http://www.w3.org/1999/02/22-rdf-syntax-ns#"
   xmlns:svg="http://www.w3.org/2000/svg"
   xmlns="http://www.w3.org/2000/svg"
   xmlns:sodipodi="http://sodipodi.sourceforge.net/DTD/sodipodi-0.dtd"
   xmlns:inkscape="http://www.inkscape.org/namespaces/inkscape"
   inkscape:version="1.0 (6e3e5246a0, 2020-05-07)"
   sodipodi:docname="postgresql.svg"
   id="svg8"
   version="1.1"
   viewBox="0 0 640 512"
   height="512"
   width="640">
  <defs
     id="defs2" />
  <sodipodi:namedview
     inkscape:window-maximized="1"
     inkscape:window-y="27"
     inkscape:window-x="67"
     inkscape:window-height="704"
     inkscape:window-width="1299"
     showgrid="false"
     inkscape:document-rotation="0"
     inkscape:current-layer="layer1"
     inkscape:document-units="px"
     inkscape:cy="214.93202"
     inkscape:cx="364.04589"
     inkscape:zoom="1"
     inkscape:pageshadow="2"
     inkscape:pageopacity="0.0"
     borderopacity="1.0"
     bordercolor="#666666"
     pagecolor="#ffffff"
     id="base"
     units="px" />
  <metadata
     id="metadata5">
    <rdf:RDF>
      <cc:Work
         rdf:about="">
        <dc:format>image/svg+xml</dc:format>
        <dc:type
           rdf:resource="http://purl.org/dc/dcmitype/StillImage" />
        <dc:title></dc:title>
      </cc:Work>
    </rdf:RDF>
  </metadata>
  <g
     id="layer1"
     inkscape:groupmode="layer"
     inkscape:label="Layer 1">
    <path
       style="fill:#000000;stroke-width:2.85714"
       d=""
       id="path304"
       transform="scale(0.26458333)" />
    <path
       style="fill:#000000;stroke-width:1.75631"
       d="m 330.31099,505.99099 c -16.17119,-7.77978 -28.09778,-25.40836 -32.46408,-47.98408 -1.10173,-5.69689 -2.46709,-29.91892 -3.03401,-53.82614 -0.56679,-23.90717 -1.2282,-43.46798 -1.46963,-43.46798 -0.24181,0 -4.51128,2.74029 -9.48829,6.08969 -14.6085,9.831 -32.70733,13.33031 -50.21738,9.70926 -21.85898,-4.52055 -32.80025,-13.44429 -28.93809,-23.60256 2.35578,-6.19592 9.95585,-10.37764 27.36569,-15.05636 12.94583,-3.47879 15.73533,-4.95935 21.85641,-11.59996 3.8591,-4.18659 7.01653,-8.40499 7.01653,-9.37416 0,-0.96909 -2.17335,-2.18356 -4.82972,-2.69882 -2.65639,-0.51506 -8.38623,-2.1308 -12.73301,-3.59017 -4.3468,-1.4593 -8.63686,-2.83106 -9.53346,-3.04823 -0.89663,-0.21711 -10.54397,10.27447 -21.43843,23.31482 -24.37278,29.1733 -31.6797,36.11879 -40.49553,38.4929 C 144.71287,376.6721 118.3647,339.5297 95.246301,261.28199 76.896641,199.17474 66.527925,139.72524 68.643411,108.75366 72.386191,53.958002 95.728127,20.955623 138.11109,10.535605 163.1923,4.3692889 205.33735,7.9506186 237.79978,19.00683 l 12.86525,4.381744 9.08818,-5.109807 c 4.99848,-2.810338 15.40515,-6.835725 23.12581,-8.9452268 12.46141,-3.404837 16.40522,-3.6906824 35.12543,-2.5460382 31.93829,1.9528012 35.5686,1.7934095 53.57938,-2.3524746 29.97501,-6.9000893 67.01598,-4.9076532 93.58732,5.0339148 22.78546,8.5251038 53.31599,34.5561388 61.64506,52.5601158 3.24249,7.009032 3.70664,11.230836 3.68106,33.486181 -0.0337,27.472751 -3.13764,46.678761 -13.20604,81.666811 -10.25448,35.63559 -33.03724,88.88369 -49.92101,116.67788 -3.41932,5.62844 -6.21638,10.62699 -6.21638,11.1079 0,0.48128 2.39211,1.86527 5.31553,3.07631 5.21508,2.1602 23.65571,1.74995 49.62316,-1.10394 12.04461,-1.32369 17.06844,1.7602 17.06844,10.47769 0,11.8266 -27.96314,31.46391 -51.6692,36.28452 -11.34513,2.30736 -36.61574,2.94401 -42.51694,1.07073 -3.53552,-1.12225 -3.79524,-0.29148 -5.83203,18.62837 -4.77032,44.32011 -10.93367,84.59429 -14.3392,93.69594 -9.65273,25.79975 -32.05196,40.41564 -64.7827,42.2713 -13.18887,0.7484 -15.95153,0.35477 -23.70991,-3.37776 z m 43.37336,-13.86481 c 18.59895,-5.66932 29.54388,-16.98822 34.5251,-35.70596 2.45174,-9.2126 9.87783,-65.96735 13.55683,-103.61051 3.25554,-33.31328 5.72104,-40.42411 15.91829,-45.91571 3.24844,-1.74935 5.9063,-3.53856 5.9063,-3.97603 0,-0.43744 -3.11772,-5.5924 -6.92831,-11.45544 -9.70701,-14.93629 -37.61819,-72.82689 -43.24394,-89.69257 -5.47976,-16.42886 -7.42655,-38.50341 -4.38351,-49.7075 4.52028,-16.6408 20.27257,-25.58314 45.33435,-25.73515 7.69447,-0.0467 12.7328,-0.8089 12.73322,-1.9264 0.003,-3.39109 -13.84261,-30.52995 -20.78797,-40.752127 -28.01432,-41.229284 -67.36899,-63.44052 -113.56639,-64.095488 -44.55467,-0.631939 -74.43385,22.49859 -90.28266,69.89019 -5.03391,15.052465 -11.7936,49.473615 -10.05687,51.210425 0.44474,0.44475 2.55628,-0.12626 4.69168,-1.26881 17.97615,-9.62059 45.33025,-13.2908 57.17268,-7.67117 6.81396,3.23339 15.91578,12.93438 18.5379,19.75819 2.96704,7.72124 6.42039,30.14319 7.62898,49.53354 1.48231,23.77968 -1.36951,39.36323 -12.86645,70.31119 -12.29409,33.09354 -12.31391,33.19528 -6.45504,33.19528 8.12449,0 16.5472,5.25828 21.23465,13.25685 4.39349,7.49686 4.41653,7.76446 5.09038,59.04598 0.37241,28.33292 1.52426,59.31248 2.55995,68.84334 3.24765,29.88737 14.47156,46.92421 33.12678,50.28277 8.48931,1.52849 16.16731,0.56985 30.55405,-3.81489 z M 270.9761,359.24291 c 8.93612,-4.5965 21.317,-17.08768 22.80218,-23.00512 1.64916,-6.57065 -4.45593,-16.66387 -10.49936,-17.35807 -3.73112,-0.42882 -6.00743,0.7783 -9.65945,5.1212 -18.4339,21.9208 -16.86976,20.98958 -51.75843,30.81466 -5.04813,1.42153 -3.52591,3.44235 4.39069,5.82965 4.10526,1.23795 8.25449,2.53442 9.22045,2.88174 0.96593,0.34686 7.68368,0.38222 14.92836,0.0774 9.21367,-0.38677 15.39692,-1.69789 20.57556,-4.36167 z m -97.313,-5.31587 c 2.71117,-1.78769 14.65049,-15.02035 26.53177,-29.40606 l 21.60247,-26.15587 -6.75092,-7.6854 C 199.231,272.6746 194.65874,253.5562 197.46263,217.1542 c 1.02364,-13.29113 1.74126,-37.99636 1.59468,-54.90048 -0.19653,-22.61406 0.53434,-35.0341 2.76519,-47.0062 5.41876,-29.081438 16.88227,-56.327352 31.42822,-74.696885 2.90364,-3.666941 4.96945,-6.976917 4.59082,-7.35562 C 235.34391,30.697477 203.09642,23.209777 187.24787,21.44744 156.1171,17.985922 130.45779,23.266513 112.76521,36.775824 84.507117,58.352511 75.314637,105.82681 87.108573,169.27886 c 17.484937,94.06991 46.156037,170.56316 69.196567,184.61358 6.79716,4.14476 11.11131,4.15334 17.35796,0.0329 z m 307.41354,-14.21913 c 14.05567,-3.59501 26.40071,-9.79461 32.06838,-16.10482 l 3.33138,-3.70924 -9.65973,1.52955 c -5.31254,0.84134 -16.79299,1.50408 -25.51164,1.47292 -12.6227,-0.0464 -17.29713,-0.80988 -22.94519,-3.75402 -6.2544,-3.25998 -7.73281,-3.42859 -12.49705,-1.42548 -9.63866,4.05284 -12.5839,21.5031 -4.02838,23.86911 8.5241,2.35704 25.94159,1.52354 39.24223,-1.87802 z M 270.04907,280.80237 c 15.65332,-43.97592 15.82969,-44.6708 16.72349,-65.86039 0.9243,-21.90998 -2.62118,-50.28663 -7.59164,-60.7611 -6.0301,-12.70737 -19.0569,-15.55997 -40.1962,-8.80211 -7.72765,2.47038 -16.88593,6.4291 -20.3519,8.79706 l -6.30162,4.30546 -1.12207,45.35403 c -1.37487,55.57028 -0.0598,62.61245 14.68253,78.60568 11.14491,12.0907 23.39948,18.75905 33.09017,18.00606 3.67325,-0.28538 5.03963,-2.71089 11.06724,-19.64469 z M 254.20708,164.44905 c -9.43622,-8.03903 -1.66855,-15.27938 11.99906,-11.18445 8.46177,2.53519 10.42432,6.0199 6.08861,10.8108 -3.91725,4.32852 -13.21982,4.52071 -18.08767,0.37371 z m 217.58598,91.76543 c 29.11435,-59.59866 45.80086,-118.22455 45.99942,-161.607168 0.1098,-24.185065 -2.45962,-30.642525 -18.51229,-46.511556 -19.11166,-18.892613 -39.8459,-29.106466 -68.02431,-33.509374 -16.37048,-2.557842 -57.91627,-0.04639 -57.91627,3.503074 0,0.63655 5.14678,4.11775 11.4367,7.735447 25.73253,14.79998 49.80212,41.262307 64.93081,71.385316 13.59726,27.074281 14.25844,31.178771 10.62045,65.921651 -2.625,25.06364 -2.80948,32.9366 -1.15052,49.04172 1.08711,10.55174 1.96502,24.38236 1.95063,30.73478 -0.028,13.08674 -4.08049,32.34529 -8.09065,38.46629 -1.47868,2.2562 -2.17645,5.42144 -1.55079,7.03379 1.02205,2.63599 1.4114,2.57741 3.85835,-0.58081 1.49676,-1.93185 8.89844,-16.15767 16.44847,-31.61297 z m -26.25311,7.46415 c 2.534,-10.163 2.63397,-27.30338 0.32852,-56.51573 -0.8333,-10.55724 -0.86775,-25.57339 -0.0766,-33.36932 0.79087,-7.79583 1.60733,-18.52101 1.81383,-23.8338 l 0.37522,-9.65951 -12.74458,-0.51646 c -15.0004,-0.60735 -26.33639,3.44145 -31.43939,11.23037 -4.86839,7.43008 -4.00986,27.66961 1.92951,45.48671 5.02994,15.0891 34.1049,76.39808 36.23079,76.39808 0.70548,0 2.31693,-4.14921 3.58191,-9.22052 z m -29.6587,-104.15889 c -5.24779,-3.67581 -4.92096,-7.50367 0.82735,-9.68922 5.98603,-2.27591 16.72879,-1.4262 17.65556,1.39654 0.95852,2.9175 -7.40922,11.02666 -11.37795,11.02666 -1.76102,0 -4.95829,-1.23034 -7.10496,-2.73398 z"
       id="path334" />
  </g>
</svg>
